<svg xmlns="http://www.w3.org/2000/svg" viewBox="0 0 516.62 186.08"><defs><style>.cls-1{fill:#90d3f4;}.cls-2{fill:#feca0d;}.cls-3{fill:#e62053;}.cls-4{fill:#fff;}</style></defs><g id="Layer_2" data-name="Layer 2"><g id="Layer_1-2" data-name="Layer 1"><path class="cls-1" d="M84.89,30.47c-5,5.52-10.08,11-15,16.58-3.92,4.42-8.26,8.48-11.64,13.34-8.47,12.18-12,25.61-9.91,40.41,1.48,10.5,5.37,20,12.35,28,7.93,9.09,16.14,17.94,24.23,26.9l0,0a.88.88,0,0,0,.06.27c1.1,1.09,2.24,2.16,3.29,3.3,5.19,5.62,10,11.63,15.67,16.75A37.61,37.61,0,0,0,127,186a37,37,0,0,0,28.88-10.66c9.43-9,14-20.33,14-33.29.07-11.55.08-23.1-.2-34.66-.25-10.44-.26-20.89.14-31.34.31-7.92.14-15.85.08-23.77a118.14,118.14,0,0,0-.3-13c-1.46-12.49-6.62-23-16.58-30.83-11.16-8.71-23.61-10.71-37-5.77-8.38,3.09-14.43,9.21-20.2,15.71-3.57,4-7,8.17-10.94,11.86a.66.66,0,0,0-.06.27m0,125.17a5.15,5.15,0,0,0,.56-.47A5.15,5.15,0,0,1,84.92,155.66Z"></path><path class="cls-2" d="M113.23,62.55c-3.36-5.23-7.8-9.55-11.92-14.12-5.43-6-10.94-12-16.42-18h0a1,1,0,0,0,.08-.25c-1-1.07-2.07-2.14-3.09-3.22-5.36-5.66-10.15-11.86-16-17-14.72-13-35-13.33-50-.7C5.43,18.08.34,29.68.08,43.17-.17,56.42.25,69.68.24,82.94c0,19.62-.19,39.24-.23,58.87a45,45,0,0,0,7.51,25.6C15.71,179.66,27,186.47,42,186c11.37-.35,20.44-5.73,28-13.87,5-5.37,9.93-10.81,14.89-16.21a1,1,0,0,0-.08-.25,4.65,4.65,0,0,0,.59-.49c7.56-8.32,15.19-16.56,22.64-25A55.94,55.94,0,0,0,113.23,62.55Z"></path><path class="cls-3" d="M84.89,155.68c-8.09-9-16.3-17.81-24.23-26.9-7-8-10.87-17.48-12.35-28C46.24,86,49.75,72.57,58.22,60.39c3.38-4.86,7.72-8.92,11.64-13.34,5-5.58,10-11.06,15-16.58,5.48,6,11,11.93,16.42,18,4.12,4.57,8.56,8.89,11.92,14.12a55.94,55.94,0,0,1-5.11,67.67c-7.45,8.41-15.08,16.65-22.64,25A4.65,4.65,0,0,1,84.89,155.68Z"></path><path class="cls-4" d="M353.24,123.86,343,62.12a19.21,19.21,0,0,0-.53-3.24l-.05-.25a14.45,14.45,0,0,0-7.12-10.22,18.6,18.6,0,0,0-28,7.89,12.38,12.38,0,0,0-.6,1.21L291.93,92.16,276.56,56.07a11.53,11.53,0,0,0-1.28-2.28,18.58,18.58,0,0,0-27.86-4.49A14.48,14.48,0,0,0,241,59.09l-10.81,65.22a14.5,14.5,0,1,0,28.61,4.74l6.32-38.12,14.66,34.43a13.78,13.78,0,0,0,24.33,0l14.39-33.81,6.14,37.05a14.5,14.5,0,0,0,28.61-4.74Z"></path><path class="cls-4" d="M392.06,60.12a14.5,14.5,0,0,0-29,0v66.11a14.5,14.5,0,0,0,14.5,14.5h0a14.5,14.5,0,0,0,14.5-14.5Z"></path><path class="cls-4" d="M464.1,112.91H430.69V60.08a14.5,14.5,0,0,0-14.5-14.5h0a14.5,14.5,0,0,0-14.5,14.5v66.11c0,.1,0,.2,0,.3s0,.2,0,.31a13.89,13.89,0,0,0,13.89,13.89H464.1A13.89,13.89,0,0,0,478,126.8h0A13.89,13.89,0,0,0,464.1,112.91Z"></path><path class="cls-4" d="M516.62,60.08a14.5,14.5,0,0,0-29,0v66.11a14.5,14.5,0,0,0,29,0Z"></path></g></g></svg>